<svg width="12" height="12" viewBox="0 0 12 12" fill="none" xmlns="http://www.w3.org/2000/svg">
<rect opacity="0.01" x="12" y="12" width="12" height="12" transform="rotate(180 12 12)" fill="black"/>
<path fill-rule="evenodd" clip-rule="evenodd" d="M6.75 4.16047L8.53148 5.58565C8.85493 5.84441 9.3269 5.79197 9.58565 5.46852C9.84441 5.14507 9.79197 4.67311 9.46852 4.41435L6.46852 2.01435C6.19461 1.79522 5.8054 1.79522 5.53148 2.01435L2.53148 4.41435C2.20804 4.67311 2.15559 5.14507 2.41435 5.46852C2.67311 5.79197 3.14508 5.84441 3.46852 5.58565L5.25 4.16047V9C5.25 9.41421 5.58579 9.75 6 9.75C6.41422 9.75 6.75 9.41421 6.75 9L6.75 4.16047Z" fill="#32FB5E"/>
</svg>
