<svg width="36" height="36" viewBox="0 0 36 36" fill="none" xmlns="http://www.w3.org/2000/svg">
<path fill-rule="evenodd" clip-rule="evenodd" d="M19.6199 22.176L22.9259 18.8699C23.839 17.9568 24.0654 16.5619 23.4879 15.407L23.3006 15.0323C22.7231 13.8774 22.9495 12.4824 23.8625 11.5694L27.9618 7.47016C28.2546 7.17726 28.7295 7.17726 29.0224 7.47016C29.0794 7.52716 29.1269 7.59298 29.1629 7.66508L30.8189 10.977C32.0857 13.5107 31.5891 16.5707 29.5861 18.5737L20.5878 27.572C18.4075 29.7523 15.1825 30.5136 12.2573 29.5386L8.63559 28.3313C8.24263 28.2003 8.03026 27.7756 8.16125 27.3826C8.19807 27.2722 8.2601 27.1718 8.34243 27.0895L12.3193 23.1126C13.2324 22.1995 14.6273 21.9731 15.7823 22.5506L16.1569 22.7379C17.3119 23.3154 18.7068 23.089 19.6199 22.176Z" fill="#6E6A94"/>
<path fill-rule="evenodd" clip-rule="evenodd" d="M21.2222 9.0108L20.9351 11.997C18.7173 11.7838 16.5146 12.5535 14.9091 14.1591C13.3088 15.7594 12.5387 17.9529 12.745 20.164L9.75799 20.4427C9.46963 17.3518 10.5493 14.2762 12.7877 12.0378C15.0335 9.79196 18.1219 8.71277 21.2222 9.0108Z" fill="#9491B4"/>
<path fill-rule="evenodd" clip-rule="evenodd" d="M21.7471 3.03341L21.4695 6.02054C17.4927 5.65101 13.545 7.03768 10.6663 9.91632C7.79165 12.791 6.40473 16.7318 6.76906 20.7036L3.7816 20.9776C3.33671 16.1276 5.03338 11.3066 8.54499 7.795C12.0615 4.27853 16.8909 2.58216 21.7471 3.03341Z" fill="#9491B4"/>
</svg>
