<svg width="18" height="18" viewBox="0 0 18 18" fill="none" xmlns="http://www.w3.org/2000/svg">
<path fill-rule="evenodd" clip-rule="evenodd" d="M5.81795 4.75736C5.52506 4.46447 5.05018 4.46447 4.75729 4.75736C4.4644 5.05025 4.4644 5.52513 4.75729 5.81802L7.93927 9L4.75729 12.182C4.4644 12.4749 4.4644 12.9497 4.75729 13.2426C5.05018 13.5355 5.52506 13.5355 5.81795 13.2426L8.99993 10.0607L12.1819 13.2426C12.4748 13.5355 12.9497 13.5355 13.2426 13.2426C13.5355 12.9497 13.5355 12.4749 13.2426 12.182L10.0606 9L13.2426 5.81802C13.5355 5.52513 13.5355 5.05025 13.2426 4.75736C12.9497 4.46447 12.4748 4.46447 12.1819 4.75736L8.99993 7.93934L5.81795 4.75736Z" fill="#6E6A94"/>
</svg>
