<svg width="58" height="50" viewBox="0 0 58 50" fill="none" xmlns="http://www.w3.org/2000/svg">
<path fill-rule="evenodd" clip-rule="evenodd" d="M50.6966 50H7.24237C3.24252 50 0 46.7575 0 42.7576V19.0751C0.00159229 16.4297 1.44535 13.9957 3.76603 12.7259L25.4931 0.824297C27.5952 -0.274766 30.1023 -0.274766 32.2044 0.824297L54.9213 12.1948C56.5106 12.9877 57.5362 14.5892 57.5917 16.3644C57.6471 18.1396 56.7235 19.8019 55.1869 20.6925L32.7597 33.7771C30.3003 35.2081 27.2308 35.0665 24.9138 33.415L10.5497 23.1549C9.8468 22.6547 9.46414 21.8175 9.5459 20.9586C9.62766 20.0997 10.1614 19.3497 10.9461 18.9911C11.7308 18.6324 12.6472 18.7197 13.3501 19.2199L27.7141 29.4799C28.4847 30.027 29.5036 30.0742 30.3214 29.6007L52.7486 16.5161L30.0317 5.14558C29.3353 4.78481 28.5071 4.78481 27.8107 5.14558L6.08359 17.0472C5.3075 17.4718 4.82583 18.287 4.82825 19.1716V42.7576C4.82825 44.0909 5.90909 45.1718 7.24237 45.1718H50.6966C52.0299 45.1718 53.1107 44.0909 53.1107 42.7576V28.2729C53.1107 26.9396 54.1916 25.8588 55.5248 25.8588C56.8581 25.8588 57.939 26.9396 57.939 28.2729V42.7576C57.939 46.7575 54.6965 50 50.6966 50Z" fill="#FB3232"/>
</svg>
