<svg width="39" height="50" viewBox="0 0 39 50" fill="none" xmlns="http://www.w3.org/2000/svg">
<path d="M38.316 12.2639L38.7292 47.6285C38.7273 48.8237 37.7578 49.7917 36.5625 49.7917H2.16667C1.59235 49.7926 1.04124 49.5651 0.634812 49.1593C0.228383 48.7535 -7.39854e-07 48.2028 0 47.6285V2.16667C0 0.97005 0.97005 0 2.16667 0H27.1076L38.316 12.2639Z" fill="#EEEBF6"/>
<path d="M27.1076 0.027832V9.77436C27.1538 11.1472 28.2689 12.2425 29.6424 12.2639H38.3229" fill="#D5D3E7"/>
<path fill-rule="evenodd" clip-rule="evenodd" d="M15.375 26.6216H8.40625C8.19988 26.6554 7.993 26.5642 7.87879 26.389C7.76458 26.2138 7.76458 25.9877 7.87879 25.8126C7.993 25.6374 8.19988 25.5461 8.40625 25.58H15.375C15.5814 25.5461 15.7882 25.6374 15.9025 25.8126C16.0167 25.9877 16.0167 26.2138 15.9025 26.389C15.7882 26.5642 15.5814 26.6554 15.375 26.6216ZM30.3229 26.6216H18.4028C18.1964 26.6554 17.9895 26.5642 17.8753 26.389C17.7611 26.2138 17.7611 25.9877 17.8753 25.8126C17.9895 25.6374 18.1964 25.5461 18.4028 25.58H30.3229C30.5781 25.6218 30.7654 25.8422 30.7654 26.1008C30.7654 26.3593 30.5781 26.5798 30.3229 26.6216ZM25.4653 31.7605H30.3021C30.5085 31.7943 30.7153 31.7031 30.8295 31.5279C30.9437 31.3527 30.9437 31.1266 30.8295 30.9514C30.7153 30.7763 30.5085 30.685 30.3021 30.7188H25.4653C25.2101 30.7607 25.0228 30.9811 25.0228 31.2397C25.0228 31.4982 25.2101 31.7187 25.4653 31.7605ZM22.3333 31.7605H14.2361C13.981 31.7187 13.7937 31.4982 13.7937 31.2397C13.7937 30.9811 13.981 30.7607 14.2361 30.7188H22.3333C22.5885 30.7607 22.7758 30.9811 22.7758 31.2397C22.7758 31.4982 22.5885 31.7187 22.3333 31.7605ZM8.40625 31.7605H11.2257C11.4808 31.7187 11.6681 31.4982 11.6681 31.2397C11.6681 30.9811 11.4808 30.7607 11.2257 30.7188H8.40625C8.1511 30.7607 7.96381 30.9811 7.96381 31.2397C7.96381 31.4982 8.1511 31.7187 8.40625 31.7605ZM25.309 36.8959H20.4861C20.231 36.8541 20.0437 36.6336 20.0437 36.3751C20.0437 36.1166 20.231 35.8961 20.4861 35.8543H25.309C25.5154 35.8205 25.7223 35.9117 25.8365 36.0869C25.9507 36.2621 25.9507 36.4881 25.8365 36.6633C25.7223 36.8385 25.5154 36.9297 25.309 36.8959ZM8.40625 36.8959H17.3264C17.5328 36.9297 17.7396 36.8385 17.8538 36.6633C17.9681 36.4881 17.9681 36.2621 17.8538 36.0869C17.7396 35.9117 17.5328 35.8205 17.3264 35.8543H8.40625C8.19988 35.8205 7.993 35.9117 7.87879 36.0869C7.76458 36.2621 7.76458 36.4881 7.87879 36.6633C7.993 36.8385 8.19988 36.9297 8.40625 36.8959Z" fill="#9491B4"/>
<path d="M18.6658 13.3063C18.6655 13.4457 18.7207 13.5795 18.8193 13.6781C18.9179 13.7767 19.0517 13.832 19.1912 13.8317L20.6349 13.8317L16.3799 18.0866C16.2291 18.2966 16.2526 18.5849 16.4354 18.7678C16.6182 18.9506 16.9065 18.9741 17.1165 18.8232L21.3714 14.5683L21.3763 16.0169C21.3763 16.3084 21.6127 16.5447 21.9042 16.5447C22.1958 16.5447 22.4321 16.3084 22.4321 16.0169L22.4296 13.3087C22.4274 13.2474 22.4149 13.1868 22.3928 13.1295L22.3781 13.1148C22.353 13.0583 22.3181 13.0068 22.275 12.9626C22.2305 12.9197 22.179 12.8848 22.1227 12.8594L22.108 12.8447C22.0517 12.8225 21.9918 12.8108 21.9312 12.8103L21.9189 12.7981H19.2133C18.9224 12.7889 18.6782 13.0155 18.6658 13.3063Z" fill="#9491B4"/>
</svg>
