<svg width="48" height="64" viewBox="0 0 48 64" fill="none" xmlns="http://www.w3.org/2000/svg">
<path fill-rule="evenodd" clip-rule="evenodd" d="M23.9867 63.9999C23.6687 64.0027 23.3528 63.9481 23.0539 63.8386C9.21781 58.5558 0.0475063 45.2093 1.41733e-05 30.2858V10.2295C-0.00360873 9.10441 0.687613 8.09604 1.73238 7.70227L20.2554 0.685232C22.6697 -0.228411 25.3303 -0.228411 27.7446 0.685232L46.2676 7.70227C47.3124 8.09604 48.0036 9.10441 48 10.2295V30.2858C47.9833 41.6463 42.6477 52.3313 33.608 59.1068C32.8415 59.6783 31.831 59.7939 30.9571 59.41C30.0832 59.0261 29.4787 58.2011 29.3713 57.2458C29.2639 56.2904 29.6699 55.3498 30.4364 54.7783C38.1163 49.0182 42.6508 39.9397 42.6696 30.2858V12.1114L25.879 5.76654C24.6679 5.30635 23.3321 5.30635 22.121 5.76654L5.33038 12.1114V30.2858C5.36635 42.9714 13.1589 54.3188 24.9195 58.8111C26.1019 59.2819 26.7901 60.5297 26.5633 61.7915C26.3364 63.0533 25.2577 63.9779 23.9867 63.9999Z" fill="#03AE39"/>
<path d="M18.5179 31.8367C17.4208 30.9985 15.8518 31.2084 15.0136 32.3055C14.1753 33.4026 14.3852 34.9716 15.4824 35.8098L20.2483 39.4511C21.2992 40.2541 22.7937 40.0996 23.6581 39.0987L32.6957 28.6341C33.5981 27.5891 33.4826 26.0104 32.4377 25.108C31.3927 24.2055 29.814 24.321 28.9116 25.366L21.4129 34.0486L18.5179 31.8367Z" fill="#03AE39"/>
</svg>
